<svg width="54" height="64" viewBox="0 0 54 64" fill="none" xmlns="http://www.w3.org/2000/svg">
<path d="M27 64V57.9048H48V54.8571H36V30.4762H48V27.4286C48 21.5365 45.95 16.5079 41.85 12.3429C37.75 8.17778 32.8 6.09524 27 6.09524C21.2 6.09524 16.25 8.17778 12.15 12.3429C8.05 16.5079 6 21.5365 6 27.4286V30.4762H18V54.8571H6C4.35 54.8571 2.937 54.2608 1.761 53.0682C0.587 51.8735 0 50.4381 0 48.7619V27.4286C0 23.6698 0.712 20.1265 2.136 16.7985C3.562 13.4725 5.5 10.5651 7.95 8.07619C10.4 5.5873 13.262 3.61854 16.536 2.1699C19.812 0.723301 23.3 0 27 0C30.7 0 34.188 0.723301 37.464 2.1699C40.738 3.61854 43.6 5.5873 46.05 8.07619C48.5 10.5651 50.438 13.4725 51.864 16.7985C53.288 20.1265 54 23.6698 54 27.4286V57.9048C54 59.581 53.413 61.0164 52.239 62.211C51.063 63.4037 49.65 64 48 64H27Z" fill="white"/>
</svg>
