<svg width="24" height="18" viewBox="0 0 24 18" fill="none" xmlns="http://www.w3.org/2000/svg">
<path d="M2.4 18C1.74 18 1.1752 17.7799 0.7056 17.3396C0.2352 16.8986 0 16.3687 0 15.75V2.25C0 1.63125 0.2352 1.10175 0.7056 0.6615C1.1752 0.2205 1.74 0 2.4 0H21.6C22.26 0 22.8252 0.2205 23.2956 0.6615C23.7652 1.10175 24 1.63125 24 2.25V15.75C24 16.3687 23.7652 16.8986 23.2956 17.3396C22.8252 17.7799 22.26 18 21.6 18H2.4ZM12 9.92812C12.1 9.92812 12.2048 9.91387 12.3144 9.88538C12.4248 9.85763 12.53 9.81563 12.63 9.75938L21.12 4.78125C21.28 4.6875 21.4 4.5705 21.48 4.43025C21.56 4.28925 21.6 4.13438 21.6 3.96563C21.6 3.59063 21.43 3.30938 21.09 3.12188C20.75 2.93438 20.4 2.94375 20.04 3.15L12 7.875L3.96 3.15C3.6 2.94375 3.25 2.93888 2.91 3.13538C2.57 3.33263 2.4 3.60938 2.4 3.96563C2.4 4.15312 2.44 4.317 2.52 4.45725C2.6 4.59825 2.72 4.70625 2.88 4.78125L11.37 9.75938C11.47 9.81563 11.5752 9.85763 11.6856 9.88538C11.7952 9.91387 11.9 9.92812 12 9.92812Z" fill="white"/>
</svg>
