<svg width="67" height="40" viewBox="0 0 67 40" fill="none" xmlns="http://www.w3.org/2000/svg">
<path d="M54.3537 6.65625L49.3706 1.69792C48.2678 0.610231 46.7778 -1.20687e-05 45.225 1.79014e-10H21.4819C19.9325 1.79014e-10 18.4355 0.614584 17.3363 1.69792L12.3531 6.65625H0V33.2917H6.7C8.5425 33.2917 10.0291 31.8125 10.0395 29.9896H10.9922L19.8487 37.9479C23.0836 40.5625 27.5747 40.625 30.9037 38.3438C32.2123 39.4688 33.6256 40 35.2064 40C37.1117 40 38.9019 39.2292 40.3152 37.5C42.6287 38.4062 45.3611 37.7708 47.0152 35.75L49.758 32.3854C50.3442 31.6667 50.7106 30.8437 50.8991 29.9896H56.9605C56.9709 31.8125 58.468 33.2917 60.3 33.2917H67V6.65625H54.3537ZM5.025 29.9583C4.10375 29.9583 3.35 29.2083 3.35 28.2917C3.35 27.375 4.10375 26.625 5.025 26.625C5.94625 26.625 6.7 27.375 6.7 28.2917C6.7 29.2188 5.94625 29.9583 5.025 29.9583ZM45.8531 29.2396L43.1208 32.5938C42.8277 32.9479 42.3042 33.0104 41.9378 32.7188L39.4358 30.6979L36.2952 34.5C35.667 35.2604 34.7248 35 34.4108 34.75L30.5583 31.4688L28.9252 33.4687C27.47 35.25 24.8214 35.5208 23.1359 34.1562L12.9498 24.9896H10.05V11.6458H14.4364L20.8956 5.22917C21.105 5.14583 21.283 5.07292 21.4923 4.98958H27.4281L23.3767 8.6875C20.2989 11.4896 20.1209 16.2188 22.9161 19.2396C24.4655 20.9271 29.323 23.5312 33.5419 19.6979L34.4003 18.9167L45.7275 28.0625C46.0834 28.3542 46.1358 28.8854 45.8531 29.2396ZM56.95 24.9896H49.7056C49.4648 24.6979 49.1927 24.4271 48.8995 24.1875L38.1481 15.5L39.4567 14.3125C40.1372 13.6875 40.1895 12.6354 39.5614 11.9583L38.4203 10.7396C37.7922 10.0625 36.7348 10.0208 36.0544 10.6354L30.2756 15.9062C29.2811 16.8125 27.5852 16.8854 26.6534 15.9062C25.6798 14.875 25.7636 13.2917 26.7791 12.375L33.6466 6.11458C34.4212 5.40625 35.4262 5.02083 36.4731 5.02083L45.2355 5C45.4553 5 45.6647 5.08333 45.8112 5.23958L52.2705 11.6562H56.95V24.9896ZM61.975 29.9583C61.0537 29.9583 60.3 29.2083 60.3 28.2917C60.3 27.375 61.0537 26.625 61.975 26.625C62.8962 26.625 63.65 27.375 63.65 28.2917C63.65 29.2188 62.8962 29.9583 61.975 29.9583Z" fill="white"/>
</svg>
