<svg width="115" height="109" viewBox="0 0 115 109" fill="none" xmlns="http://www.w3.org/2000/svg">
<g clip-path="url(#clip0_232_346)">
<path d="M28.2618 85.2526L29.4354 83.4089C30.8216 84.3181 32.226 85.2157 33.7092 86.0364L32.6073 87.9112C31.1412 87.1568 29.678 86.1683 28.2618 85.2526ZM36.9963 90.4384L37.9913 88.4779C39.5588 89.2698 41.0258 89.9462 42.4702 90.5081L41.6963 92.5319C40.0947 91.916 38.5259 91.2173 36.9963 90.4384ZM46.625 94.0645L47.1243 91.9345C47.6445 92.0624 48.2009 92.1667 48.7274 92.2647C49.7692 92.4452 50.8215 92.5572 51.8775 92.5999L51.8213 94.7785C50.6673 94.7354 49.517 94.618 48.3776 94.4269C47.8501 94.407 47.2049 94.2052 46.625 94.0645ZM57.1269 94.3894L56.7571 92.2285C58.3291 91.9677 59.8655 91.5273 61.3363 90.9159L62.1873 92.946C60.531 93.6343 58.8036 94.1381 57.0362 94.4481L57.1269 94.3894ZM65.4002 88.5691C66.628 87.6102 67.6875 86.4533 68.5356 85.1456L70.3803 86.3259C69.3999 87.8329 68.1762 89.1659 66.7589 90.2705L65.4002 88.5691ZM70.4098 80.8867C70.8041 79.3545 71.0025 77.7778 70.9999 76.1944L73.1705 76.2089C73.1945 77.9787 72.9776 79.7429 72.5257 81.4527L70.4098 80.8867ZM70.5543 71.3726C70.2957 69.9398 69.9429 68.3615 69.4606 66.5831L71.6269 65.955C72.0991 67.6057 72.4793 69.281 72.7658 70.9733L70.5543 71.3726ZM68.0253 61.7825L67.5691 60.3228L66.5301 56.969L68.6729 56.3046L69.7182 59.6284L70.1861 61.1063L68.0253 61.7825ZM65.1981 52.0499C64.8164 50.3871 64.5189 48.6955 64.2695 46.9987L66.4257 46.7127C66.6761 48.3315 66.9681 49.9749 67.3326 51.5714L65.1981 52.0499ZM63.7732 41.8999C63.6498 40.1989 63.6224 38.4874 63.6485 36.8187L65.8308 36.8513C65.8111 38.4901 65.8512 40.1418 65.9574 41.7764L63.7732 41.8999ZM63.8781 31.6887C64.0483 30.0042 64.2548 28.2961 64.5328 26.6192L66.6751 26.9874C66.4098 28.6045 66.2161 30.2527 66.0586 31.8774L63.8781 31.6887ZM65.5464 21.627C65.9622 19.9641 66.4377 18.3141 66.9487 16.7187L69.0274 17.3861C68.5228 18.9516 68.0835 20.5782 67.675 22.1331L65.5464 21.627ZM68.6863 11.8514C69.3467 10.2882 70.067 8.73795 70.8407 7.2305L72.7715 8.22597C72.0405 9.68002 71.3447 11.1886 70.7087 12.7101L68.6863 11.8514ZM73.3348 2.77678C73.8545 1.94998 74.3741 1.12318 74.9355 0.32103L76.7376 1.55476C76.1944 2.34517 75.6992 3.13029 75.1859 3.92716L73.3348 2.77678Z" fill="#F1F1F1"/>
<path d="M30.2943 95.7059L32.418 95.1312L29.5748 84.7379L40.1412 82.6982L39.7234 80.5426L26.873 83.0284L30.2943 95.7059Z" fill="#F1F1F1"/>
</g>
<defs>
<clipPath id="clip0_232_346">
<rect width="71" height="90" fill="white" transform="translate(75.5508) rotate(57.0825)"/>
</clipPath>
</defs>
</svg>
