<svg width="49" height="95" viewBox="0 0 49 95" fill="none" xmlns="http://www.w3.org/2000/svg">
<path d="M0.261834 85.2526L1.43535 83.4089C2.82159 84.3181 4.22597 85.2157 5.70922 86.0364L4.60726 87.9112C3.1412 87.1568 1.67798 86.1683 0.261834 85.2526ZM8.99627 90.4384L9.99127 88.4779C11.5588 89.2698 13.0258 89.9462 14.4702 90.5081L13.6963 92.5319C12.0947 91.916 10.5259 91.2173 8.99627 90.4384ZM18.625 94.0645L19.1243 91.9345C19.6445 92.0624 20.2009 92.1667 20.7274 92.2647C21.7692 92.4452 22.8215 92.5572 23.8775 92.5999L23.8213 94.7785C22.6673 94.7354 21.517 94.618 20.3776 94.4269C19.8501 94.407 19.2049 94.2052 18.625 94.0645ZM29.1269 94.3894L28.7571 92.2285C30.3291 91.9677 31.8655 91.5273 33.3363 90.9159L34.1873 92.946C32.531 93.6343 30.8036 94.1381 29.0362 94.4481L29.1269 94.3894ZM37.4002 88.5691C38.628 87.6102 39.6875 86.4533 40.5356 85.1456L42.3803 86.3259C41.3999 87.8329 40.1762 89.1659 38.7589 90.2705L37.4002 88.5691ZM42.4098 80.8867C42.8041 79.3545 43.0025 77.7778 42.9999 76.1944L45.1705 76.2089C45.1945 77.9787 44.9776 79.7429 44.5257 81.4527L42.4098 80.8867ZM42.5543 71.3726C42.2957 69.9398 41.9429 68.3615 41.4606 66.5831L43.6269 65.955C44.0991 67.6057 44.4793 69.281 44.7658 70.9733L42.5543 71.3726ZM40.0253 61.7825L39.5691 60.3228L38.5301 56.969L40.6729 56.3046L41.7182 59.6284L42.1861 61.1063L40.0253 61.7825ZM37.1981 52.0499C36.8164 50.3871 36.5189 48.6955 36.2695 46.9987L38.4257 46.7127C38.6761 48.3315 38.9681 49.9749 39.3326 51.5714L37.1981 52.0499ZM35.7732 41.8999C35.6498 40.1989 35.6224 38.4874 35.6485 36.8187L37.8308 36.8513C37.8111 38.4901 37.8512 40.1418 37.9574 41.7764L35.7732 41.8999ZM35.8781 31.6887C36.0483 30.0042 36.2548 28.2961 36.5328 26.6192L38.6751 26.9874C38.4098 28.6045 38.2161 30.2527 38.0586 31.8774L35.8781 31.6887ZM37.5464 21.627C37.9622 19.9641 38.4377 18.3141 38.9487 16.7187L41.0274 17.3861C40.5228 18.9516 40.0835 20.5782 39.675 22.1331L37.5464 21.627ZM40.6863 11.8514C41.3467 10.2882 42.067 8.73795 42.8407 7.2305L44.7715 8.22597C44.0405 9.68002 43.3447 11.1886 42.7087 12.7101L40.6863 11.8514ZM45.3348 2.77678C45.8545 1.94998 46.3741 1.12318 46.9355 0.32103L48.7376 1.55476C48.1944 2.34517 47.6992 3.13029 47.1859 3.92716L45.3348 2.77678Z" fill="#F1F1F1"/>
</svg>
