<svg width="35" height="35" viewBox="0 0 35 35" fill="none" xmlns="http://www.w3.org/2000/svg">
<path d="M33.0556 17.5C32.537 17.5 32.0756 17.3133 31.6711 16.94C31.2654 16.568 31.0301 16.1065 30.9653 15.5556C30.544 12.5417 29.2723 9.97306 27.1503 7.84972C25.0269 5.72769 22.4583 4.45602 19.4444 4.03472C18.8935 3.96991 18.432 3.74306 18.06 3.35417C17.6867 2.96528 17.5 2.49537 17.5 1.94444C17.5 1.39352 17.6944 0.931389 18.0833 0.558055C18.4722 0.186018 18.9259 0.0324073 19.4444 0.0972221C23.5278 0.550926 27.0116 2.21991 29.8958 5.10417C32.7801 7.98843 34.4491 11.4722 34.9028 15.5556C34.9676 16.0741 34.8133 16.5278 34.44 16.9167C34.068 17.3056 33.6065 17.5 33.0556 17.5ZM24.9375 17.5C24.5162 17.5 24.1435 17.3542 23.8194 17.0625C23.4954 16.7708 23.2523 16.3819 23.0903 15.8958C22.831 14.956 22.3371 14.1212 21.6086 13.3914C20.8788 12.6629 20.044 12.169 19.1042 11.9097C18.6181 11.7477 18.2292 11.5046 17.9375 11.1806C17.6458 10.8565 17.5 10.4676 17.5 10.0139C17.5 9.36574 17.7269 8.8388 18.1806 8.43305C18.6343 8.02861 19.1366 7.8912 19.6875 8.02083C21.5023 8.44213 23.0663 9.3087 24.3794 10.6206C25.6913 11.9337 26.5579 13.4977 26.9792 15.3125C27.1088 15.8634 26.963 16.3657 26.5417 16.8194C26.1204 17.2731 25.5856 17.5 24.9375 17.5ZM32.9583 35C28.7778 35 24.7029 34.068 20.7336 32.2039C16.7631 30.3411 13.2469 27.8781 10.185 24.815C7.12185 21.7531 4.65889 18.2369 2.79611 14.2664C0.932037 10.2971 0 6.22222 0 2.04167C0 1.45833 0.194444 0.972222 0.583333 0.583333C0.972222 0.194444 1.45833 0 2.04167 0H9.91667C10.3704 0 10.7755 0.145833 11.1319 0.4375C11.4884 0.729167 11.6991 1.10185 11.7639 1.55556L13.0278 8.36111C13.0926 8.81482 13.0848 9.22768 13.0044 9.59972C12.9228 9.97305 12.7361 10.3056 12.4444 10.5972L7.77778 15.3611C9.13889 17.6944 10.8403 19.8819 12.8819 21.9236C14.9236 23.9653 17.1759 25.7315 19.6389 27.2222L24.2083 22.6528C24.5 22.3611 24.8811 22.142 25.3517 21.9956C25.8209 21.8504 26.2824 21.8102 26.7361 21.875L33.4444 23.2361C33.8981 23.3333 34.2708 23.5518 34.5625 23.8914C34.8542 24.2323 35 24.6296 35 25.0833V32.9583C35 33.5417 34.8056 34.0278 34.4167 34.4167C34.0278 34.8056 33.5417 35 32.9583 35Z" fill="white"/>
</svg>
