<svg width="157" height="53" viewBox="0 0 157 53" fill="none" xmlns="http://www.w3.org/2000/svg">
<path d="M50.5608 11.0769C44.6989 17.1545 39.778 22.1538 39.6408 22.1538C39.5035 22.1538 36.602 21.4088 33.2103 20.4874C29.8186 19.5659 26.917 18.8209 26.7602 18.8209C26.6229 18.8209 20.9571 25.9376 14.1933 34.6423C7.42951 43.3666 1.58718 50.8557 1.21468 51.3066C0.842187 51.7772 0.58732 52.1497 0.646135 52.1497C0.724556 52.1497 6.74333 45.6015 14.0364 37.583C21.3296 29.5841 27.4268 23.0164 27.564 22.9772C27.7012 22.938 30.2499 23.7222 33.2299 24.7025L38.6409 26.5061L38.5233 27.604C38.3272 29.5645 36.8372 52.581 36.896 52.7378C36.9352 52.8358 42.307 42.3275 48.8748 29.4077C55.4229 16.5075 60.8339 5.88153 60.9123 5.82272C60.9711 5.7443 61.971 6.58732 63.1081 7.68521C64.2452 8.76349 66.7154 11.1161 68.5583 12.9002L71.95 16.1154L73.9301 14.9979C75.5966 14.0373 75.9299 13.9 76.1455 14.1353C76.2827 14.2921 83.3602 22.4871 91.8492 32.3485C100.338 42.2098 107.592 50.6008 107.945 50.9733C108.494 51.5419 107.749 49.7382 103.318 39.916C100.417 33.4464 97.9856 28.0157 97.9268 27.8197C97.8288 27.5256 99.1423 26.5846 104.906 22.742L111.984 17.9975L112.709 18.6837C113.101 19.0366 118.63 24.0555 124.982 29.7998C131.354 35.5441 136.804 40.4846 137.098 40.7591C137.627 41.2296 137.568 41.0728 136.255 37.2497C133.491 29.3293 133.098 28.1726 133.196 28.0942C133.236 28.0549 138.294 31.1133 144.411 34.9167C155.978 42.0726 157.076 42.7392 156.742 42.4059C155.095 40.7591 133.02 21.5656 132.863 21.6441C132.726 21.7029 131.354 22.8008 129.785 24.0947L126.942 26.4277L126.06 25.6827C125.57 25.271 122.276 22.5067 118.708 19.5463C112.788 14.5862 112.219 14.1549 111.846 14.3902C109.141 16.0958 92.2805 26.3493 92.2217 26.3297C92.1629 26.3101 88.6732 22.3891 84.4777 17.6054C80.2626 12.8218 76.616 8.72428 76.4004 8.48902L75.9691 8.0577L74.1066 9.43006L72.2637 10.8024L66.8527 5.39141C63.8923 2.43103 61.4025 -7.62939e-06 61.3436 -7.62939e-06C61.2848 -7.62939e-06 56.4423 4.9797 50.5608 11.0769Z" fill="#2194FF"/>
</svg>
