<svg width="64" height="58" viewBox="0 0 64 58" fill="none" xmlns="http://www.w3.org/2000/svg">
<path d="M31.4156 52.2C31.608 52.2 31.8004 52.1517 31.9928 52.055C32.1852 51.9583 32.3295 51.8617 32.4257 51.765L56.092 27.985C56.6692 27.405 57.0906 26.7525 57.3561 26.0275C57.6197 25.3025 57.7515 24.5775 57.7515 23.8525C57.7515 23.0792 57.6197 22.3416 57.3561 21.6398C57.0906 20.9399 56.6692 20.3242 56.092 19.7925L43.8259 7.4675C43.2968 6.8875 42.684 6.4641 41.9875 6.1973C41.289 5.93243 40.555 5.8 39.7854 5.8C39.0638 5.8 38.3423 5.93243 37.6208 6.1973C36.8992 6.4641 36.2498 6.8875 35.6726 7.4675L34.8789 8.265L40.2183 13.7025C40.9398 14.3792 41.4689 15.1525 41.8057 16.0225C42.1424 16.8925 42.3107 17.8108 42.3107 18.7775C42.3107 20.8075 41.6258 22.5108 40.2558 23.8873C38.8839 25.2658 37.1878 25.955 35.1675 25.955C34.2055 25.955 33.28 25.7858 32.3911 25.4475C31.5002 25.1092 30.7181 24.6017 30.0447 23.925L24.6332 18.56L12.0063 31.2475C11.862 31.3925 11.7533 31.5501 11.6802 31.7202C11.609 31.8884 11.5734 32.0692 11.5734 32.2625C11.5734 32.6492 11.7177 32.9991 12.0063 33.3123C12.2949 33.6274 12.6316 33.785 13.0165 33.785C13.2089 33.785 13.4013 33.7367 13.5937 33.64C13.7861 33.5433 13.9304 33.4467 14.0266 33.35L23.8395 23.49L27.8801 27.55L18.1394 37.41C17.995 37.555 17.8863 37.7116 17.8132 37.8798C17.742 38.0499 17.7064 38.2317 17.7064 38.425C17.7064 38.8117 17.8507 39.15 18.1394 39.44C18.428 39.73 18.7647 39.875 19.1495 39.875C19.3419 39.875 19.5343 39.8267 19.7267 39.73C19.9191 39.6333 20.0634 39.5367 20.1596 39.44L29.9725 29.6525L34.0131 33.7125L24.2724 43.5725C24.1281 43.6692 24.0203 43.8142 23.9491 44.0075C23.876 44.2008 23.8395 44.3942 23.8395 44.5875C23.8395 44.9742 23.9838 45.3125 24.2724 45.6025C24.561 45.8925 24.8977 46.0375 25.2825 46.0375C25.4749 46.0375 25.6558 46.0008 25.8251 45.9273C25.9925 45.8558 26.1484 45.7475 26.2927 45.6025L36.1055 35.815L40.1461 39.875L30.3333 49.735C30.189 49.88 30.0812 50.0366 30.01 50.2048C29.9369 50.3749 29.9004 50.5567 29.9004 50.75C29.9004 51.1367 30.0572 51.475 30.3708 51.765C30.6825 52.055 31.0308 52.2 31.4156 52.2ZM31.3434 58C29.5636 58 27.9888 57.4074 26.6188 56.2223C25.2469 55.0391 24.4407 53.5533 24.2002 51.765C22.5648 51.5233 21.1938 50.8467 20.0875 49.735C18.9811 48.6233 18.3077 47.2458 18.0672 45.6025C16.4317 45.3608 15.0733 44.6726 13.992 43.5377C12.9087 42.4009 12.2468 41.035 12.0063 39.44C10.1784 39.1983 8.68726 38.4008 7.53281 37.0475C6.37836 35.6942 5.80113 34.0992 5.80113 32.2625C5.80113 31.2958 5.98199 30.3649 6.34372 29.4698C6.70353 28.5766 7.22015 27.7917 7.89358 27.115L24.6332 10.3675L34.0852 19.865C34.1814 20.01 34.3258 20.1183 34.5182 20.1898C34.7106 20.2633 34.903 20.3 35.0954 20.3C35.5283 20.3 35.8891 20.1676 36.1777 19.9027C36.4663 19.6359 36.6106 19.285 36.6106 18.85C36.6106 18.6567 36.575 18.4633 36.5038 18.27C36.4307 18.0767 36.322 17.9317 36.1777 17.835L25.8598 7.4675C25.3306 6.8875 24.7169 6.4641 24.0184 6.1973C23.3219 5.93243 22.5888 5.8 21.8192 5.8C21.0976 5.8 20.3761 5.93243 19.6546 6.1973C18.933 6.4641 18.2837 6.8875 17.7064 7.4675L7.53281 17.7625C7.09989 18.1975 6.73912 18.705 6.45051 19.285C6.1619 19.865 5.96949 20.445 5.87328 21.025C5.77708 21.605 5.77708 22.1966 5.87328 22.7998C5.96949 23.4049 6.1619 23.9733 6.45051 24.505L2.26562 28.71C1.44788 27.5983 0.846599 26.3774 0.461781 25.0473C0.0769635 23.7191 -0.0673431 22.3783 0.0288614 21.025C0.125066 19.6717 0.461781 18.3541 1.03901 17.0723C1.61624 15.7924 2.40992 14.645 3.42007 13.63L13.5937 3.4075C14.7481 2.29583 16.0354 1.45 17.4553 0.87C18.8734 0.29 20.328 0 21.8192 0C23.3103 0 24.765 0.29 26.183 0.87C27.603 1.45 28.8662 2.29583 29.9725 3.4075L30.7662 4.205L31.5599 3.4075C32.7143 2.29583 34.0006 1.45 35.4186 0.87C36.8386 0.29 38.2942 0 39.7854 0C41.2765 0 42.7321 0.29 44.1521 0.87C45.5701 1.45 46.8323 2.29583 47.9387 3.4075L60.1326 15.66C61.239 16.7717 62.0807 18.0525 62.658 19.5025C63.2352 20.9525 63.5238 22.4267 63.5238 23.925C63.5238 25.4233 63.2352 26.8849 62.658 28.3098C62.0807 29.7366 61.239 31.0058 60.1326 32.1175L36.4663 55.825C35.7929 56.5017 35.0107 57.0333 34.1199 57.42C33.231 57.8067 32.3055 58 31.3434 58Z" fill="white"/>
</svg>
