<svg width="60" height="60" viewBox="0 0 60 60" fill="none" xmlns="http://www.w3.org/2000/svg">
<path d="M57 3H39.45L34.05 16.905C36.9854 17.506 39.7511 18.7498 42.1484 20.5472C44.5456 22.3446 46.5149 24.6508 47.9145 27.3L57 3ZM20.55 3H3L12.0855 27.3C13.4851 24.6508 15.4544 22.3446 17.8516 20.5472C20.2489 18.7498 23.0147 17.506 25.95 16.905L20.55 3Z" stroke="white" stroke-width="5.4" stroke-linecap="round" stroke-linejoin="round"/>
<path d="M50.25 36.75C50.25 47.9334 41.1834 57 30 57C18.8166 57 9.75 47.9334 9.75 36.75C9.75 33.3372 10.5937 30.1215 12.0855 27.3C13.4851 24.6508 15.4544 22.3446 17.8516 20.5472C20.2489 18.7498 23.0147 17.506 25.95 16.905C27.2595 16.6391 28.6136 16.5 30 16.5C31.3865 16.5 32.7405 16.6391 34.05 16.905C36.9854 17.506 39.7511 18.7498 42.1484 20.5472C44.5456 22.3446 46.5149 24.6508 47.9145 27.3C49.4531 30.212 50.255 33.4565 50.25 36.75V36.75Z" stroke="white" stroke-width="5.4" stroke-linecap="round" stroke-linejoin="round"/>
<path d="M29.2273 44.2934C32.7283 44.2934 35.31 42.494 35.31 39.3255V39.2864C35.31 36.4113 32.9826 34.964 30.7333 34.964C29.6381 34.964 28.8557 35.2574 28.1321 35.7072L28.2298 33.9274H34.7037V30.3091H24.8267L24.4355 37.4284L27.1932 38.7975C27.8387 38.2694 28.445 37.9369 29.286 37.9369C30.2444 37.9369 30.8898 38.4454 30.8898 39.2473V39.2864C30.8898 40.0492 30.2639 40.5968 29.1687 40.5968C28.0538 40.5968 26.9585 40.0492 25.785 39.1104L23.262 42.0442C24.768 43.4328 26.5674 44.2934 29.2273 44.2934Z" fill="white"/>
</svg>
