<svg width="59" height="58" viewBox="0 0 59 58" fill="none" xmlns="http://www.w3.org/2000/svg">
<path d="M15 7.25V0M15 29V21.75M0.5 14.5H7.75M22.25 14.5H29.5M5.33333 4.83333L10.1667 9.66667M19.8333 19.3333L24.6667 24.1667M24.6667 4.83333L19.8333 9.66667M10.1667 19.3333L5.33333 24.1667M44 14.5V7.25M44 36.25V29M29.5 21.75H36.75M51.25 21.75H58.5M34.3333 12.0833L39.1667 16.9167M48.8333 26.5833L53.6667 31.4167M53.6667 12.0833L48.8333 16.9167M39.1667 26.5833L34.3333 31.4167M22.25 36.25V29M22.25 58V50.75M7.75 43.5H15M29.5 43.5H36.75M12.5833 33.8333L17.4167 38.6667M27.0833 48.3333L31.9167 53.1667M31.9167 33.8333L27.0833 38.6667M17.4167 48.3333L12.5833 53.1667M15 21.75C16.9228 21.75 18.7669 20.9862 20.1265 19.6265C21.4862 18.2669 22.25 16.4228 22.25 14.5C22.25 12.5772 21.4862 10.7331 20.1265 9.37348C18.7669 8.01384 16.9228 7.25 15 7.25C13.0772 7.25 11.2331 8.01384 9.87348 9.37348C8.51384 10.7331 7.75 12.5772 7.75 14.5C7.75 16.4228 8.51384 18.2669 9.87348 19.6265C11.2331 20.9862 13.0772 21.75 15 21.75V21.75ZM44 29C45.9228 29 47.7669 28.2362 49.1265 26.8765C50.4862 25.5169 51.25 23.6728 51.25 21.75C51.25 19.8272 50.4862 17.9831 49.1265 16.6235C47.7669 15.2638 45.9228 14.5 44 14.5C42.0772 14.5 40.2331 15.2638 38.8735 16.6235C37.5138 17.9831 36.75 19.8272 36.75 21.75C36.75 23.6728 37.5138 25.5169 38.8735 26.8765C40.2331 28.2362 42.0772 29 44 29ZM22.25 50.75C24.1728 50.75 26.0169 49.9862 27.3765 48.6265C28.7362 47.2669 29.5 45.4228 29.5 43.5C29.5 41.5772 28.7362 39.7331 27.3765 38.3735C26.0169 37.0138 24.1728 36.25 22.25 36.25C20.3272 36.25 18.4831 37.0138 17.1235 38.3735C15.7638 39.7331 15 41.5772 15 43.5C15 45.4228 15.7638 47.2669 17.1235 48.6265C18.4831 49.9862 20.3272 50.75 22.25 50.75V50.75Z" stroke="white" stroke-width="4.32836"/>
</svg>
