<svg width="56" height="59" viewBox="0 0 56 59" fill="none" xmlns="http://www.w3.org/2000/svg">
<path d="M3 29.3158H53" stroke="white" stroke-width="5.26316" stroke-linecap="round" stroke-linejoin="round"/>
<path d="M33.2638 3H22.7375C22.0395 3 21.3702 3.27725 20.8767 3.77077C20.3831 4.26429 20.1059 4.93364 20.1059 5.63158V16.1579C20.1059 16.8558 20.3831 17.5252 20.8767 18.0187C21.3702 18.5122 22.0395 18.7895 22.7375 18.7895H33.2638C33.9617 18.7895 34.6311 18.5122 35.1246 18.0187C35.6181 17.5252 35.8954 16.8558 35.8954 16.1579V5.63158C35.8954 4.93364 35.6181 4.26429 35.1246 3.77077C34.6311 3.27725 33.9617 3 33.2638 3V3ZM17.4743 39.8421H6.94799C6.25005 39.8421 5.58069 40.1194 5.08718 40.6129C4.59366 41.1064 4.31641 41.7757 4.31641 42.4737V53C4.31641 53.6979 4.59366 54.3673 5.08718 54.8608C5.58069 55.3543 6.25005 55.6316 6.94799 55.6316H17.4743C18.1722 55.6316 18.8416 55.3543 19.3351 54.8608C19.8286 54.3673 20.1059 53.6979 20.1059 53V42.4737C20.1059 41.7757 19.8286 41.1064 19.3351 40.6129C18.8416 40.1194 18.1722 39.8421 17.4743 39.8421V39.8421ZM49.0532 39.8421H38.5269C37.829 39.8421 37.1596 40.1194 36.6661 40.6129C36.1726 41.1064 35.8954 41.7757 35.8954 42.4737V53C35.8954 53.6979 36.1726 54.3673 36.6661 54.8608C37.1596 55.3543 37.829 55.6316 38.5269 55.6316H49.0532C49.7512 55.6316 50.4205 55.3543 50.9141 54.8608C51.4076 54.3673 51.6848 53.6979 51.6848 53V42.4737C51.6848 41.7757 51.4076 41.1064 50.9141 40.6129C50.4205 40.1194 49.7512 39.8421 49.0532 39.8421Z" stroke="white" stroke-width="5.26316" stroke-linejoin="round"/>
<path d="M28.0004 29.3159V18.7896M43.7899 39.8422V29.3159M12.2109 39.8422V29.3159" stroke="white" stroke-width="5.26316" stroke-linecap="round" stroke-linejoin="round"/>
</svg>
