<svg width="58" height="60" viewBox="0 0 58 60" fill="none" xmlns="http://www.w3.org/2000/svg">
<path d="M29.0066 40.5C26.2391 40.5 23.585 39.3938 21.6281 37.4246C19.6712 35.4555 18.5718 32.7848 18.5718 30C18.5718 27.2152 19.6712 24.5445 21.6281 22.5754C23.585 20.6063 26.2391 19.5 29.0066 19.5C31.774 19.5 34.4282 20.6063 36.3851 22.5754C38.342 24.5445 39.4413 27.2152 39.4413 30C39.4413 32.7848 38.342 35.4555 36.3851 37.4246C34.4282 39.3938 31.774 40.5 29.0066 40.5ZM51.158 32.91C51.2773 31.95 51.3667 30.99 51.3667 30C51.3667 29.01 51.2773 28.02 51.158 27L57.4487 22.11C58.0152 21.66 58.1642 20.85 57.8065 20.19L51.8438 9.81001C51.486 9.15001 50.681 8.88001 50.0251 9.15001L42.6016 12.15C41.0513 10.98 39.4413 9.96001 37.5631 9.21001L36.46 1.26001C36.3994 0.906657 36.2165 0.586286 35.9436 0.35566C35.6708 0.125034 35.3256 -0.000959323 34.9693 5.50041e-06H23.0439C22.2985 5.50041e-06 21.6725 0.540006 21.5532 1.26001L20.4501 9.21001C18.5718 9.96001 16.9619 10.98 15.4116 12.15L7.98804 9.15001C7.33214 8.88001 6.52717 9.15001 6.16941 9.81001L0.206702 20.19C-0.180874 20.85 -0.00199245 21.66 0.564465 22.11L6.85512 27C6.73587 28.02 6.64643 29.01 6.64643 30C6.64643 30.99 6.73587 31.95 6.85512 32.91L0.564465 37.89C-0.00199245 38.34 -0.180874 39.15 0.206702 39.81L6.16941 50.19C6.52717 50.85 7.33214 51.09 7.98804 50.85L15.4116 47.82C16.9619 49.02 18.5718 50.04 20.4501 50.79L21.5532 58.74C21.6725 59.46 22.2985 60 23.0439 60H34.9693C35.7146 60 36.3407 59.46 36.46 58.74L37.5631 50.79C39.4413 50.01 41.0513 49.02 42.6016 47.82L50.0251 50.85C50.681 51.09 51.486 50.85 51.8438 50.19L57.8065 39.81C58.1642 39.15 58.0152 38.34 57.4487 37.89L51.158 32.91Z" fill="white"/>
</svg>
