<svg width="56" height="57" viewBox="0 0 56 57" fill="none" xmlns="http://www.w3.org/2000/svg">
<path fill-rule="evenodd" clip-rule="evenodd" d="M27.9893 14.0052C27.9887 11.8183 28.5004 9.66168 29.4834 7.70813C30.4664 5.75458 31.8933 4.05845 33.6498 2.75566C35.4063 1.45286 37.4435 0.57963 39.5983 0.205934C41.753 -0.167762 43.9653 -0.0315278 46.058 0.603718C46.3887 0.703915 46.6879 0.888097 46.9262 1.13831C47.1646 1.38852 47.3341 1.69623 47.4182 2.03144C47.5023 2.36665 47.498 2.71792 47.4059 3.05102C47.3139 3.38412 47.137 3.68767 46.8927 3.93209L38.0384 12.7838C38.2094 14.0962 38.8099 15.3152 39.7463 16.2507C40.6827 17.1861 41.9023 17.7853 43.215 17.955L52.064 9.10334C52.3084 8.85903 52.6119 8.68221 52.945 8.59012C53.2781 8.49803 53.6294 8.49382 53.9646 8.57789C54.2998 8.66196 54.6075 8.83145 54.8578 9.06983C55.108 9.30821 55.2922 9.60736 55.3923 9.9381C56.057 12.1273 56.1751 14.446 55.7362 16.6914C55.2974 18.9368 54.315 21.0404 52.875 22.8183C51.4351 24.5961 49.5814 25.9941 47.4761 26.8897C45.3709 27.7854 43.0782 28.1516 40.7987 27.9561C38.0837 27.7268 35.8115 28.2228 34.6407 29.647L15.5719 52.8096C14.7911 53.7531 13.8219 54.5231 12.7263 55.0704C11.6308 55.6177 10.433 55.9301 9.2097 55.9878C7.98641 56.0454 6.76457 55.847 5.6224 55.4052C4.48023 54.9633 3.44291 54.2879 2.57686 53.422C1.71081 52.5561 1.03512 51.519 0.593049 50.3769C0.15098 49.2348 -0.047723 48.013 0.00966231 46.7897C0.0670476 45.5664 0.379257 44.3686 0.926299 43.2729C1.47334 42.1772 2.24316 41.2079 3.18646 40.4269L26.3464 21.3554C27.7679 20.1819 28.2666 17.9123 28.0373 15.1974C28.0046 14.8008 27.9886 14.4031 27.9893 14.0052ZM6.96556 47.009C6.96556 46.4785 7.17629 45.9697 7.55141 45.5946C7.92652 45.2195 8.43529 45.0087 8.96578 45.0087H8.98712C9.51761 45.0087 10.0264 45.2195 10.4015 45.5946C10.7766 45.9697 10.9873 46.4785 10.9873 47.009V47.0303C10.9873 47.5608 10.7766 48.0695 10.4015 48.4447C10.0264 48.8198 9.51761 49.0305 8.98712 49.0305H8.96578C8.43529 49.0305 7.92652 48.8198 7.55141 48.4447C7.17629 48.0695 6.96556 47.5608 6.96556 47.0303V47.009Z" fill="white"/>
<path d="M22.8574 19.0459L16.9874 13.1786V9.00213C16.9874 8.6568 16.898 8.31737 16.7278 8.01686C16.5577 7.71634 16.3127 7.46499 16.0166 7.28727L6.0155 1.28659C5.63298 1.05729 5.18481 0.962401 4.74218 1.017C4.29956 1.07161 3.88788 1.27257 3.57256 1.58796L1.57233 3.58818C1.25694 3.9035 1.05598 4.31518 1.00138 4.75781C0.946776 5.20043 1.04166 5.64861 1.27097 6.03112L7.27164 16.0323C7.44937 16.3283 7.70072 16.5733 8.00123 16.7435C8.30174 16.9136 8.64118 17.003 8.9865 17.003H13.1576L18.6569 22.5023L22.8574 19.0433V19.0459Z" fill="white"/>
<path fill-rule="evenodd" clip-rule="evenodd" d="M29.4727 42.2189L40.6286 53.3721C41.4644 54.208 42.4567 54.871 43.5487 55.3233C44.6408 55.7757 45.8113 56.0085 46.9933 56.0085C48.1753 56.0085 49.3458 55.7757 50.4379 55.3233C51.5299 54.871 52.5222 54.208 53.358 53.3721C54.1938 52.5363 54.8569 51.544 55.3092 50.452C55.7615 49.3599 55.9944 48.1895 55.9944 47.0074C55.9944 45.8254 55.7615 44.6549 55.3092 43.5629C54.8569 42.4708 54.1938 41.4785 53.358 40.6427L44.541 31.8284C43.1895 32.02 41.8207 32.0584 40.4606 31.943C39.4098 31.8524 38.6417 31.927 38.1483 32.0551C37.9922 32.0881 37.842 32.1448 37.7029 32.2231L29.4727 42.2189ZM38.5777 38.5918C38.9527 38.2172 39.4611 38.0068 39.9912 38.0068C40.5212 38.0068 41.0296 38.2172 41.4047 38.5918L46.4052 43.595C46.6018 43.7781 46.7594 43.999 46.8687 44.2443C46.978 44.4897 47.0368 44.7546 47.0415 45.0231C47.0463 45.2917 46.9969 45.5585 46.8963 45.8075C46.7957 46.0566 46.6459 46.2829 46.456 46.4728C46.2661 46.6627 46.0398 46.8125 45.7908 46.9131C45.5417 47.0137 45.2749 47.0631 45.0063 47.0583C44.7378 47.0536 44.4729 46.9948 44.2275 46.8855C43.9822 46.7762 43.7614 46.6185 43.5782 46.422L38.5777 41.4215C38.2031 41.0464 37.9927 40.538 37.9927 40.008C37.9927 39.4779 38.2031 38.9695 38.5777 38.5945V38.5918Z" fill="white"/>
</svg>
