<svg width="16" height="12" viewBox="0 0 16 12" fill="none" xmlns="http://www.w3.org/2000/svg">
<path d="M1.6 11.8857C1.16 11.8857 0.783467 11.7404 0.4704 11.4497C0.1568 11.1585 0 10.8086 0 10.4V1.48571C0 1.07714 0.1568 0.727505 0.4704 0.4368C0.783467 0.1456 1.16 0 1.6 0H14.4C14.84 0 15.2168 0.1456 15.5304 0.4368C15.8435 0.727505 16 1.07714 16 1.48571V10.4C16 10.8086 15.8435 11.1585 15.5304 11.4497C15.2168 11.7404 14.84 11.8857 14.4 11.8857H1.6ZM8 6.55571C8.06667 6.55571 8.13653 6.54631 8.2096 6.52749C8.2832 6.50916 8.35333 6.48143 8.42 6.44429L14.08 3.15714C14.1867 3.09524 14.2667 3.01798 14.32 2.92537C14.3733 2.83227 14.4 2.73 14.4 2.61857C14.4 2.37095 14.2867 2.18524 14.06 2.06143C13.8333 1.93762 13.6 1.94381 13.36 2.08L8 5.2L2.64 2.08C2.4 1.94381 2.16667 1.94059 1.94 2.07034C1.71333 2.20059 1.6 2.38333 1.6 2.61857C1.6 2.74238 1.62667 2.85059 1.68 2.9432C1.73333 3.0363 1.81333 3.10762 1.92 3.15714L7.58 6.44429C7.64667 6.48143 7.7168 6.50916 7.7904 6.52749C7.86347 6.54631 7.93333 6.55571 8 6.55571Z" fill="#2D2D2D"/>
</svg>
