<svg width="105" height="36" viewBox="0 0 105 36" fill="none" xmlns="http://www.w3.org/2000/svg">
<path d="M34.1151 7.39144C30.2038 11.4466 26.9204 14.7823 26.8288 14.7823C26.7373 14.7823 24.8013 14.2852 22.5382 13.6704C20.2752 13.0556 18.3391 12.5585 18.2345 12.5585C18.1429 12.5585 14.3624 17.307 9.84943 23.115C5.33642 28.9362 1.43822 33.9332 1.18967 34.2341C0.941131 34.548 0.771075 34.7966 0.810319 34.7966C0.862644 34.7966 4.87857 30.4274 9.74478 25.0772C14.611 19.7401 18.6792 15.3579 18.7708 15.3317C18.8624 15.3056 20.5629 15.8288 22.5513 16.4829L26.1617 17.6863L26.0832 18.4189C25.9524 19.727 24.9582 35.0843 24.9975 35.189C25.0236 35.2544 28.6079 28.2429 32.9901 19.6224C37.3592 11.0149 40.9696 3.92492 41.0219 3.88568C41.0612 3.83335 41.7283 4.39584 42.487 5.12839C43.2458 5.84786 44.894 7.4176 46.1236 8.60799L48.3867 10.7533L49.7079 10.0077C50.8198 9.3667 51.0421 9.27513 51.186 9.43211C51.2776 9.53676 55.9999 15.0047 61.6641 21.5845C67.3283 28.1644 72.1683 33.7631 72.4038 34.0117C72.77 34.391 72.2729 33.1876 69.3166 26.6339C67.3806 22.3171 65.7585 18.6936 65.7193 18.5628C65.6539 18.3666 66.5303 17.7387 70.3762 15.1748L75.0985 12.0091L75.5825 12.4669C75.8441 12.7024 79.533 16.0512 83.7713 19.884C88.0227 23.7168 91.6593 27.0132 91.8555 27.1964C92.2087 27.5103 92.1695 27.4057 91.293 24.8548C89.4486 19.57 89.1869 18.7982 89.2524 18.7459C89.2785 18.7198 92.6535 20.7604 96.7348 23.2982C104.453 28.0728 105.185 28.5176 104.963 28.2952C103.864 27.1964 89.1346 14.3899 89.03 14.4422C88.9384 14.4815 88.0227 15.214 86.9762 16.0774L85.0795 17.634L84.4908 17.1369C84.1638 16.8622 81.9661 15.0178 79.5853 13.0425C75.6348 9.73297 75.2555 9.44519 75.0069 9.60216C73.2017 10.7402 61.9519 17.5817 61.9126 17.5686C61.8734 17.5555 59.5449 14.9393 56.7456 11.7475C53.9331 8.55567 51.5 5.82169 51.3561 5.66472L51.0683 5.37693L49.8256 6.29262L48.596 7.2083L44.9856 3.59789C43.0103 1.62263 41.349 0.000557968 41.3097 0.000557968C41.2705 0.000557968 38.0394 3.32318 34.1151 7.39144Z" fill="#2194FF"/>
<path d="M0.497037 35.1494C0.326981 35.3587 0.340062 35.3717 0.549362 35.2017C0.667092 35.1101 0.771742 35.0055 0.771742 34.9793C0.771742 34.8747 0.667092 34.9401 0.497037 35.1494Z" fill="#2194FF"/>
</svg>
