<svg width="409" height="59" viewBox="0 0 409 59" fill="none" xmlns="http://www.w3.org/2000/svg">
<path d="M50.5608 11.0769C44.6989 17.1545 39.778 22.1538 39.6408 22.1538C39.5035 22.1538 36.602 21.4088 33.2103 20.4874C29.8186 19.5659 26.917 18.8209 26.7602 18.8209C26.6229 18.8209 20.9571 25.9376 14.1933 34.6423C7.42951 43.3666 1.58718 50.8557 1.21468 51.3066C0.842187 51.7772 0.58732 52.1497 0.646135 52.1497C0.724556 52.1497 6.74333 45.6015 14.0364 37.583C21.3296 29.5841 27.4268 23.0164 27.564 22.9772C27.7012 22.938 30.2499 23.7222 33.2299 24.7025L38.6409 26.5061L38.5233 27.604C38.3272 29.5645 36.8372 52.581 36.896 52.7378C36.9352 52.8358 42.307 42.3275 48.8748 29.4077C55.4229 16.5075 60.8339 5.88153 60.9123 5.82272C60.9711 5.7443 61.971 6.58732 63.1081 7.68521C64.2452 8.76349 66.7154 11.1161 68.5583 12.9002L71.95 16.1154L73.9301 14.9979C75.5966 14.0373 75.9299 13.9 76.1455 14.1353C76.2827 14.2921 83.3602 22.4871 91.8492 32.3485C100.338 42.2098 107.592 50.6008 107.945 50.9733C108.494 51.5419 107.749 49.7382 103.318 39.916C100.417 33.4464 97.9856 28.0157 97.9268 27.8197C97.8288 27.5256 99.1423 26.5846 104.906 22.742L111.984 17.9975L112.709 18.6837C113.101 19.0366 118.63 24.0555 124.982 29.7998C131.354 35.5441 136.804 40.4846 137.098 40.7591C137.627 41.2296 137.568 41.0728 136.255 37.2497C133.491 29.3293 133.098 28.1726 133.196 28.0942C133.236 28.0549 138.294 31.1133 144.411 34.9167C155.978 42.0726 157.076 42.7392 156.742 42.4059C155.095 40.7591 133.02 21.5656 132.863 21.6441C132.726 21.7029 131.354 22.8008 129.785 24.0947L126.942 26.4277L126.06 25.6827C125.57 25.271 122.276 22.5067 118.708 19.5463C112.788 14.5862 112.219 14.1549 111.846 14.3902C109.141 16.0958 92.2805 26.3493 92.2217 26.3297C92.1629 26.3101 88.6732 22.3891 84.4777 17.6054C80.2626 12.8218 76.616 8.72428 76.4004 8.48902L75.9691 8.0577L74.1066 9.43006L72.2637 10.8024L66.8527 5.39141C63.8923 2.43103 61.4025 -7.62939e-06 61.3436 -7.62939e-06C61.2848 -7.62939e-06 56.4423 4.9797 50.5608 11.0769Z" fill="#2194FF"/>
<path d="M0.175582 52.679C-0.0792851 52.9927 -0.05968 53.0123 0.254002 52.7574C0.430448 52.6202 0.587289 52.4633 0.587289 52.4241C0.587289 52.2673 0.430448 52.3653 0.175582 52.679Z" fill="#2194FF"/>
<path d="M194.786 14.464C194.786 5.96669 191.163 0.018909 185.928 0.019363C180.876 0.0198011 176.95 5.15897 176.95 14.4655C176.951 23.2865 180.909 29.1129 185.839 29.1124C190.253 29.112 194.787 24.7416 194.786 14.464ZM180.055 14.4652C180.055 9.20503 182.002 3.90417 185.928 3.90383C189.824 3.9035 191.681 9.7705 191.682 14.4642C191.682 20.736 189.004 24.904 185.839 24.9043C182.613 24.9045 180.056 20.5752 180.055 14.4652Z" fill="#2D2D2D"/>
<path d="M214.225 14.4623C214.225 5.965 210.602 0.0172232 205.367 0.0176772C200.315 0.0181153 196.389 5.15729 196.39 14.4638C196.39 23.2848 200.348 29.1112 205.278 29.1107C209.692 29.1104 214.226 24.7399 214.225 14.4623ZM199.494 14.4636C199.494 9.20334 201.441 3.90249 205.367 3.90215C209.263 3.90181 211.12 9.76882 211.121 14.4626C211.121 20.7344 208.443 24.9023 205.278 24.9026C202.052 24.9029 199.495 20.5735 199.494 14.4636Z" fill="#2D2D2D"/>
<path d="M233.664 14.4606C233.664 5.96332 230.041 0.0155374 224.806 0.0159914C219.754 0.0164296 215.828 5.1556 215.829 14.4621C215.829 23.2831 219.787 29.1095 224.717 29.1091C229.131 29.1087 233.665 24.7383 233.664 14.4606ZM218.933 14.4619C218.933 9.20165 220.88 3.9008 224.806 3.90046C228.702 3.90012 230.559 9.76713 230.56 14.4609C230.56 20.7327 227.882 24.9006 224.717 24.9009C221.491 24.9012 218.934 20.5718 218.933 14.4619Z" fill="#2D2D2D"/>
<path d="M243.54 17.8182L248.652 9.68464L250.57 11.1411L246.309 18.0607L250.571 24.9796L248.654 26.4769L243.54 18.3442L243.54 17.8182ZM249.566 17.8177L254.739 9.68411L256.627 11.1406L252.366 18.0602L256.628 24.979L254.741 26.4763L249.566 18.3437L249.566 17.8177Z" fill="#2D2D2D"/>
<path d="M277.045 28.7404L271.107 0.416608L265.02 0.417136L259.057 28.7419L262.161 28.7416L264.017 19.7586L272.113 19.7579L274.001 28.7406L277.045 28.7404ZM267.242 4.34188L268.886 4.34173L271.291 15.8331L264.839 15.8336L267.242 4.34188Z" fill="#2D2D2D"/>
<path d="M290.891 0.414892L284.773 0.415423L278.81 28.7402L281.884 28.7399L287.026 4.34016L288.639 4.34002L293.754 28.7389L296.828 28.7386L290.891 0.414892Z" fill="#2D2D2D"/>
<path d="M302.815 12.1482L302.814 0.413858L299.892 0.414112L299.894 28.7384C300.807 28.7383 302.482 28.9405 304.369 28.9403C308.843 28.9399 314.595 27.8469 314.595 20.4017C314.594 13.0374 308.963 11.9049 305.493 11.9052C303.941 11.9053 302.815 12.1482 302.815 12.1482ZM302.816 25.2583L302.815 16.1136C303.637 15.9517 304.611 15.8302 305.585 15.8301C308.537 15.8299 311.581 16.8412 311.581 20.3615C311.582 24.7315 307.625 25.4602 305.038 25.4604C303.76 25.4605 302.816 25.2583 302.816 25.2583Z" fill="#2D2D2D"/>
<path d="M333.511 0.411196L318.75 0.412476L318.752 28.7367L321.704 28.7365L321.702 4.33715L330.559 4.33639L330.561 28.7357L333.514 28.7355L333.511 0.411196Z" fill="#2D2D2D"/>
<path d="M350.459 6.68153L342.029 17.8906L342.028 0.410458L339.075 0.410714L339.078 28.735L342.03 28.7347L342.03 23.434L350.46 12.225L350.461 28.734L353.413 28.7337L353.411 0.409471L350.459 0.409727L350.459 6.68153Z" fill="#2D2D2D"/>
<path d="M369 11.7783L360.082 11.7791L360.081 0.408892L357.098 0.409151L357.101 28.7334L360.083 28.7332L360.082 15.704L369 15.7032L369.001 28.7324L371.954 28.7321L371.951 0.407863L368.999 0.408119L369 11.7783Z" fill="#2D2D2D"/>
<path d="M393.501 28.7303L387.563 0.406509L381.476 0.407037L375.513 28.7318L378.617 28.7315L380.473 19.7485L388.569 19.7478L390.457 28.7305L393.501 28.7303ZM383.698 4.33178L385.342 4.33163L387.747 15.823L381.294 15.8235L383.698 4.33178Z" fill="#2D2D2D"/>
<path d="M408.84 18.3299L403.666 26.4634L401.779 24.9665L406.039 18.0469L401.778 11.128L403.665 9.67119L408.84 17.8039L408.84 18.3299ZM402.783 18.3304L397.64 26.464L395.752 24.967L400.013 18.0474L395.751 11.1286L397.638 9.67171L402.783 17.8044L402.783 18.3304Z" fill="#2D2D2D"/>
<path d="M186.243 43.3956L181.175 43.4135L186.959 37.6475H184.506L179.975 42.1601V37.6475H178.239V50.1823H179.975V45.1505H184.506L184.524 50.1823H186.261L186.243 43.9328V43.3956ZM194.648 37.6475H191.048L187.539 50.1823H189.347L192.373 39.3845H193.322L196.331 50.1823H198.139L194.648 37.6475ZM207.589 40.4231L202.629 45.3833V37.6475H200.892V50.1823H202.629V47.8365L207.589 42.8763V50.1823H209.326V37.6475H207.589V40.4231ZM219.339 45.8668L220.145 39.3845H220.664L222.437 50.1823H224.192L222.132 37.6475H218.605L217.799 44.1119H217.297L216.187 37.6475H212.677L211.173 50.1823H212.928L214.217 39.3845H214.737L215.829 45.8668H219.339ZM236.461 50.1823L232.969 37.6475H229.388L225.878 50.1823H227.704L228.797 46.207H233.56L234.67 50.1823H236.461ZM230.695 39.3845H231.662L233.076 44.47H229.28L230.695 39.3845ZM237.571 37.6475V39.3845H241.475V50.1823H243.211V39.3845H246.936V37.6475H237.571ZM255.871 40.4231L250.911 45.3833V37.6475H249.174V50.1823H250.911V47.8365L255.871 42.8763V50.1823H257.608V37.6475H255.871V40.4231ZM266.206 37.6475C266.206 38.7399 266.027 42.3212 263.574 42.2854C260.315 42.2317 260.995 37.6475 260.995 37.6475H259.258C259.258 37.6475 258.238 44.0224 263.574 44.0224C264.505 44.0224 265.776 43.5568 266.206 43.0017L266.224 50.1823H267.961V37.6475H266.206ZM279.094 37.6475H270.929V50.1823H279.094V48.4453H272.684V44.5058H277.93V42.7689H272.684V39.3845H279.094V37.6475ZM289.52 48.4453C285.527 48.2663 282.984 47.353 282.984 43.9149C282.984 40.2798 285.545 39.4203 289.502 39.4024L289.52 37.6654C285.115 37.6654 281.247 38.4533 281.247 43.9149C281.247 49.3407 285.133 50.1823 289.52 50.1823V48.4453ZM300.346 43.3956L295.279 43.4135L301.062 37.6475H298.609L294.079 42.1601V37.6475H292.342V50.1823H294.079V45.1505H298.609L298.627 50.1823H300.364L300.346 43.9328V43.3956ZM309.557 40.4231L304.597 45.3833V37.6475H302.86V50.1823H304.597V47.8365L309.557 42.8763V50.1823H311.294V37.6475H309.557V40.4231ZM321.396 37.6475H313.23V50.1823H321.396V48.4453H314.985V44.5058H320.232V42.7689H314.985V39.3845H321.396V37.6475ZM336.473 48.4453C332.48 48.2663 329.937 47.353 329.937 43.9149C329.937 40.2798 332.498 39.4203 336.455 39.4024L336.473 37.6654C332.068 37.6654 328.2 38.4533 328.2 43.9149C328.2 49.3407 332.086 50.1823 336.473 50.1823V48.4453ZM346.332 40.4231L341.372 45.3833V37.6475H339.635V50.1823H341.372V47.8365L346.332 42.8763V50.1823H348.069V37.6475H346.332V40.4231ZM358.314 48.4453C354.321 48.2663 351.778 47.353 351.778 43.9149C351.778 40.2798 354.339 39.4203 358.296 39.4024L358.314 37.6654C353.909 37.6654 350.041 38.4533 350.041 43.9149C350.041 49.3407 353.927 50.1823 358.314 50.1823V48.4453ZM360.33 37.6475V39.3845H364.234V50.1823H365.971V39.3845H369.696V37.6475H360.33ZM379.383 37.6475H371.217V50.1823H379.383V48.4453H372.972V44.5058H378.219V42.7689H372.972V39.3845H379.383V37.6475ZM389.576 45.8668L390.382 39.3845H390.901L392.674 50.1823H394.428L392.369 37.6475H388.842L388.036 44.1119H387.534L386.424 37.6475H382.914L381.41 50.1823H383.165L384.454 39.3845H384.974L386.066 45.8668H389.576ZM406.322 50.1823H408.041V37.6475H406.322V50.1823ZM398.013 37.6475H396.312V50.1823C394.521 50.1823 396.312 50.1823 396.312 50.1823C396.849 50.1823 397.834 50.2718 398.944 50.2718C401.576 50.2718 404.961 49.7883 404.961 46.4935C404.961 43.2345 401.648 42.7331 399.589 42.7331C398.675 42.7331 398.013 42.8405 398.013 42.8405V37.6475ZM398.013 44.5954C398.514 44.5238 399.087 44.47 399.66 44.47C401.397 44.47 403.188 44.9177 403.188 46.4756C403.188 48.4095 400.86 48.7318 399.338 48.7318C398.586 48.7318 398.013 48.6423 398.013 48.6423V44.5954Z" fill="#2D2D2D"/>
</svg>
