<svg width="511" height="173" viewBox="0 0 511 173" fill="none" xmlns="http://www.w3.org/2000/svg">
<path d="M163.247 36.2021C144.088 56.0653 128.005 72.4045 127.557 72.4045C127.108 72.4045 117.625 69.9696 106.54 66.9581C95.4553 63.9466 85.9721 61.5117 85.4595 61.5117C85.011 61.5117 66.4933 84.771 44.3874 113.22C22.2815 141.734 3.18717 166.21 1.96975 167.684C0.752319 169.222 -0.0806565 170.439 0.111569 170.439C0.367869 170.439 20.0389 149.038 43.8748 122.832C67.7107 96.6889 87.6381 75.2238 88.0866 75.0956C88.5351 74.9675 96.8649 77.5305 106.604 80.7342L124.289 86.6291L123.905 90.2173C123.264 96.6248 118.394 171.849 118.586 172.362C118.714 172.682 136.271 138.338 157.736 96.1122C179.137 53.9509 196.822 19.2222 197.078 19.03C197.271 18.7737 200.538 21.5289 204.255 25.1171C207.971 28.6412 216.044 36.3302 222.068 42.161L233.153 52.6693L239.624 49.0171C245.07 45.8774 246.16 45.4289 246.865 46.1978C247.313 46.7104 270.444 73.4937 298.189 105.723C325.933 137.953 349.641 165.377 350.794 166.595C352.588 168.453 350.154 162.558 335.673 130.456C326.19 109.312 318.244 91.5629 318.052 90.9222C317.732 89.961 322.025 86.8854 340.863 74.3267L363.994 58.8206L366.365 61.0632C367.646 62.2165 385.715 78.6197 406.476 97.3937C427.3 116.168 445.113 132.315 446.074 133.212C447.804 134.749 447.612 134.237 443.319 121.742C434.284 95.8559 433.003 92.0755 433.323 91.8192C433.451 91.6911 449.983 101.687 469.974 114.117C507.778 137.505 511.366 139.683 510.277 138.594C504.895 133.212 432.746 70.4822 432.234 70.7385C431.785 70.9307 427.3 74.5189 422.174 78.7479L412.883 86.3728L410 83.938C408.398 82.5924 397.633 73.5578 385.972 63.8825C366.621 47.6715 364.763 46.2618 363.545 47.0307C354.703 52.6053 299.598 86.1165 299.406 86.0525C299.214 85.9884 287.809 73.1734 274.096 57.5391C260.32 41.9047 248.402 28.5131 247.698 27.7442L246.288 26.3345L240.201 30.8198L234.178 35.305L216.493 17.6203C206.818 7.94496 198.68 -0.000350952 198.488 -0.000350952C198.296 -0.000350952 182.469 16.2747 163.247 36.2021Z" fill="#2D2D2D"/>
</svg>
