<svg width="274" height="39" viewBox="0 0 274 39" fill="none" xmlns="http://www.w3.org/2000/svg">
<path d="M34.1151 7.39144C30.2038 11.4466 26.9204 14.7823 26.8288 14.7823C26.7373 14.7823 24.8013 14.2852 22.5382 13.6704C20.2752 13.0556 18.3391 12.5585 18.2345 12.5585C18.1429 12.5585 14.3624 17.307 9.84943 23.115C5.33642 28.9362 1.43822 33.9332 1.18967 34.2341C0.941131 34.548 0.771075 34.7966 0.810319 34.7966C0.862644 34.7966 4.87857 30.4274 9.74478 25.0772C14.611 19.7401 18.6792 15.3579 18.7708 15.3317C18.8624 15.3056 20.5629 15.8288 22.5513 16.4829L26.1617 17.6863L26.0832 18.4189C25.9524 19.727 24.9582 35.0843 24.9975 35.189C25.0236 35.2544 28.6079 28.2429 32.9901 19.6224C37.3592 11.0149 40.9696 3.92492 41.0219 3.88568C41.0612 3.83335 41.7283 4.39584 42.487 5.12839C43.2458 5.84786 44.894 7.4176 46.1236 8.60799L48.3867 10.7533L49.7079 10.0077C50.8198 9.3667 51.0421 9.27513 51.186 9.43211C51.2776 9.53676 55.9999 15.0047 61.6641 21.5845C67.3283 28.1644 72.1683 33.7631 72.4038 34.0117C72.77 34.391 72.2729 33.1876 69.3166 26.6339C67.3806 22.3171 65.7585 18.6936 65.7193 18.5628C65.6539 18.3666 66.5303 17.7387 70.3762 15.1748L75.0985 12.0091L75.5825 12.4669C75.8441 12.7024 79.533 16.0512 83.7713 19.884C88.0227 23.7168 91.6593 27.0132 91.8555 27.1964C92.2087 27.5103 92.1695 27.4057 91.293 24.8548C89.4486 19.57 89.1869 18.7982 89.2524 18.7459C89.2785 18.7198 92.6535 20.7604 96.7348 23.2982C104.453 28.0728 105.185 28.5176 104.963 28.2952C103.864 27.1964 89.1346 14.3899 89.03 14.4422C88.9384 14.4815 88.0227 15.214 86.9762 16.0774L85.0795 17.634L84.4908 17.1369C84.1638 16.8622 81.9661 15.0178 79.5853 13.0425C75.6348 9.73297 75.2555 9.44519 75.0069 9.60216C73.2017 10.7402 61.9519 17.5817 61.9126 17.5686C61.8734 17.5555 59.5449 14.9393 56.7456 11.7475C53.9331 8.55567 51.5 5.82169 51.3561 5.66472L51.0683 5.37693L49.8256 6.29262L48.596 7.2083L44.9856 3.59789C43.0103 1.62263 41.349 0.000557968 41.3097 0.000557968C41.2705 0.000557968 38.0394 3.32318 34.1151 7.39144Z" fill="#2194FF"/>
<path d="M0.497037 35.1494C0.326981 35.3587 0.340062 35.3717 0.549362 35.2017C0.667092 35.1101 0.771742 35.0055 0.771742 34.9793C0.771742 34.8747 0.667092 34.9401 0.497037 35.1494Z" fill="#2194FF"/>
<path d="M130.348 9.65059C130.347 3.98092 127.93 0.0123611 124.437 0.0126641C121.066 0.0129564 118.447 3.44198 118.447 9.65162C118.448 15.5373 121.088 19.4248 124.378 19.4245C127.323 19.4243 130.348 16.5082 130.348 9.65059ZM120.519 9.65144C120.518 6.14165 121.818 2.60474 124.437 2.60451C127.037 2.60429 128.276 6.51895 128.276 9.65077C128.277 13.8355 126.49 16.6165 124.378 16.6167C122.225 16.6169 120.519 13.7282 120.519 9.65144Z" fill="white"/>
<path d="M143.318 9.64946C143.318 3.9798 140.901 0.0112363 137.408 0.0115393C134.036 0.0118316 131.417 3.44086 131.418 9.6505C131.418 15.5362 134.058 19.4237 137.348 19.4234C140.293 19.4232 143.319 16.5071 143.318 9.64946ZM133.489 9.65032C133.489 6.14052 134.788 2.60362 137.408 2.60339C140.007 2.60316 141.246 6.51783 141.247 9.64964C141.247 13.8344 139.46 16.6154 137.348 16.6156C135.195 16.6158 133.489 13.7271 133.489 9.65032Z" fill="white"/>
<path d="M156.289 9.64834C156.288 3.97867 153.871 0.0101115 150.378 0.0104145C147.007 0.0107068 144.387 3.43974 144.388 9.64937C144.388 15.535 147.029 19.4226 150.319 19.4223C153.263 19.422 156.289 16.5059 156.289 9.64834ZM146.459 9.64919C146.459 6.1394 147.758 2.60249 150.378 2.60226C152.978 2.60204 154.217 6.5167 154.217 9.64852C154.217 13.8333 152.431 16.6143 150.319 16.6145C148.166 16.6146 146.46 13.726 146.459 9.64919Z" fill="white"/>
<path d="M162.878 11.8886L166.289 6.46166L167.568 7.43349L164.726 12.0505L167.569 16.667L166.29 17.666L162.878 12.2396L162.878 11.8886ZM166.899 11.8883L170.351 6.46131L171.61 7.43314L168.767 12.0501L171.611 16.6666L170.352 17.6657L166.899 12.2393L166.899 11.8883Z" fill="white"/>
<path d="M185.233 19.1763L181.272 0.277719L177.21 0.278072L173.231 19.1773L175.303 19.1771L176.541 13.1834L181.943 13.1829L183.203 19.1765L185.233 19.1763ZM178.693 2.89679L179.789 2.89669L181.394 10.5641L177.089 10.5645L178.693 2.89679Z" fill="white"/>
<path d="M194.472 0.276575L190.39 0.276929L186.411 19.1762L188.462 19.176L191.893 2.89565L192.969 2.89555L196.383 19.1753L198.434 19.1751L194.472 0.276575Z" fill="white"/>
<path d="M202.428 8.10543L202.427 0.275885L200.478 0.276054L200.479 19.175C201.089 19.1749 202.206 19.3098 203.465 19.3097C206.45 19.3094 210.288 18.5801 210.288 13.6124C210.287 8.69871 206.53 7.94308 204.215 7.94328C203.179 7.94337 202.428 8.10543 202.428 8.10543ZM202.429 16.8529L202.428 10.7513C202.977 10.6432 203.626 10.5622 204.276 10.5621C206.246 10.562 208.277 11.2367 208.277 13.5856C208.278 16.5014 205.638 16.9876 203.911 16.9878C203.058 16.9879 202.429 16.8529 202.429 16.8529Z" fill="white"/>
<path d="M222.91 0.274108L213.06 0.274963L213.062 19.1739L215.032 19.1737L215.03 2.89364L220.94 2.89313L220.942 19.1732L222.911 19.173L222.91 0.274108Z" fill="white"/>
<path d="M234.218 4.45788L228.593 11.9369L228.592 0.273616L226.622 0.273786L226.624 19.1727L228.594 19.1725L228.594 15.6357L234.218 8.15667L234.219 19.172L236.189 19.1719L236.188 0.272957L234.218 0.273128L234.218 4.45788Z" fill="white"/>
<path d="M246.589 7.85861L240.639 7.85913L240.638 0.272571L238.648 0.272744L238.649 19.1716L240.64 19.1715L240.639 10.478L246.589 10.4775L246.59 19.171L248.56 19.1708L248.558 0.271884L246.588 0.272055L246.589 7.85861Z" fill="white"/>
<path d="M262.937 19.1695L258.975 0.270981L254.913 0.271333L250.934 19.1706L253.006 19.1704L254.244 13.1766L259.646 13.1762L260.906 19.1697L262.937 19.1695ZM256.396 2.89005L257.493 2.88996L259.098 10.5574L254.792 10.5577L256.396 2.89005Z" fill="white"/>
<path d="M273.171 12.2301L269.719 17.657L268.46 16.6582L271.303 12.0412L268.459 7.42474L269.718 6.45269L273.171 11.8791L273.171 12.2301ZM269.13 12.2304L265.698 17.6574L264.439 16.6586L267.282 12.0416L264.438 7.42509L265.697 6.45304L269.13 11.8794L269.13 12.2304Z" fill="white"/>
<path d="M124.647 29.2798L121.266 29.2918L125.125 25.4445H123.488L120.466 28.4554V25.4445H119.307V33.8081H120.466V30.4507H123.488L123.5 33.8081H124.659L124.647 29.6382V29.2798ZM130.255 25.4445H127.854L125.512 33.8081H126.719L128.738 26.6035H129.371L131.378 33.8081H132.585L130.255 25.4445ZM138.89 27.2964L135.581 30.606V25.4445H134.422V33.8081H135.581V32.2429L138.89 28.9333V33.8081H140.049V25.4445H138.89V27.2964ZM146.73 30.9286L147.268 26.6035H147.614L148.797 33.8081H149.968L148.594 25.4445H146.24L145.703 29.7577H145.368L144.627 25.4445H142.285L141.282 33.8081H142.453L143.313 26.6035H143.659L144.388 30.9286H146.73ZM158.154 33.8081L155.825 25.4445H153.435L151.093 33.8081H152.312L153.041 31.1556H156.219L156.96 33.8081H158.154ZM154.307 26.6035H154.952L155.896 29.9967H153.363L154.307 26.6035ZM158.895 25.4445V26.6035H161.5V33.8081H162.659V26.6035H165.144V25.4445H158.895ZM171.106 27.2964L167.796 30.606V25.4445H166.637V33.8081H167.796V32.2429L171.106 28.9333V33.8081H172.265V25.4445H171.106V27.2964ZM178.001 25.4445C178.001 26.1733 177.882 28.5629 176.245 28.539C174.071 28.5032 174.525 25.4445 174.525 25.4445H173.366C173.366 25.4445 172.685 29.698 176.245 29.698C176.866 29.698 177.715 29.3873 178.001 29.017L178.013 33.8081H179.172V25.4445H178.001ZM186.601 25.4445H181.153V33.8081H186.601V32.6491H182.324V30.0206H185.824V28.8616H182.324V26.6035H186.601V25.4445ZM193.557 32.6491C190.893 32.5297 189.196 31.9203 189.196 29.6263C189.196 27.2009 190.905 26.6273 193.545 26.6154L193.557 25.4564C190.618 25.4564 188.037 25.9822 188.037 29.6263C188.037 33.2465 190.63 33.8081 193.557 33.8081V32.6491ZM200.781 29.2798L197.4 29.2918L201.259 25.4445H199.622L196.599 28.4554V25.4445H195.44V33.8081H196.599V30.4507H199.622L199.634 33.8081H200.793L200.781 29.6382V29.2798ZM206.926 27.2964L203.617 30.606V25.4445H202.458V33.8081H203.617V32.2429L206.926 28.9333V33.8081H208.085V25.4445H206.926V27.2964ZM214.826 25.4445H209.377V33.8081H214.826V32.6491H210.548V30.0206H214.049V28.8616H210.548V26.6035H214.826V25.4445ZM224.886 32.6491C222.221 32.5297 220.525 31.9203 220.525 29.6263C220.525 27.2009 222.233 26.6273 224.874 26.6154L224.886 25.4564C221.947 25.4564 219.366 25.9822 219.366 29.6263C219.366 33.2465 221.959 33.8081 224.886 33.8081V32.6491ZM231.464 27.2964L228.155 30.606V25.4445H226.996V33.8081H228.155V32.2429L231.464 28.9333V33.8081H232.623V25.4445H231.464V27.2964ZM239.459 32.6491C236.795 32.5297 235.098 31.9203 235.098 29.6263C235.098 27.2009 236.807 26.6273 239.447 26.6154L239.459 25.4564C236.52 25.4564 233.939 25.9822 233.939 29.6263C233.939 33.2465 236.532 33.8081 239.459 33.8081V32.6491ZM240.804 25.4445V26.6035H243.409V33.8081H244.568V26.6035H247.053V25.4445H240.804ZM253.517 25.4445H248.069V33.8081H253.517V32.6491H249.239V30.0206H252.74V28.8616H249.239V26.6035H253.517V25.4445ZM260.318 30.9286L260.855 26.6035H261.202L262.385 33.8081H263.556L262.182 25.4445H259.828L259.29 29.7577H258.956L258.215 25.4445H255.873L254.87 33.8081H256.04L256.901 26.6035H257.247L257.976 30.9286H260.318ZM271.491 33.8081H272.638V25.4445H271.491V33.8081ZM265.947 25.4445H264.812V33.8081C263.618 33.8081 264.812 33.8081 264.812 33.8081C265.171 33.8081 265.828 33.8678 266.569 33.8678C268.325 33.8678 270.583 33.5452 270.583 31.3468C270.583 29.1723 268.373 28.8377 266.999 28.8377C266.389 28.8377 265.947 28.9094 265.947 28.9094V25.4445ZM265.947 30.0803C266.282 30.0325 266.664 29.9967 267.047 29.9967C268.206 29.9967 269.4 30.2954 269.4 31.3349C269.4 32.6253 267.847 32.8403 266.832 32.8403C266.33 32.8403 265.947 32.7806 265.947 32.7806V30.0803Z" fill="white"/>
</svg>
