<svg width="55" height="30" viewBox="0 0 55 30" fill="none" xmlns="http://www.w3.org/2000/svg">
<path d="M37.5 0H12.5L0 15V22.5H5C5 24.4891 5.79018 26.3968 7.1967 27.8033C8.60322 29.2098 10.5109 30 12.5 30C14.4891 30 16.3968 29.2098 17.8033 27.8033C19.2098 26.3968 20 24.4891 20 22.5H35C35 24.4891 35.7902 26.3968 37.1967 27.8033C38.6032 29.2098 40.5109 30 42.5 30C44.4891 30 46.3968 29.2098 47.8033 27.8033C49.2098 26.3968 50 24.4891 50 22.5H55V15C55 12.225 52.775 10 50 10H45L37.5 0ZM13.75 3.75H23.75V10H8.75L13.75 3.75ZM27.5 3.75H36.25L41.15 10H27.5V3.75ZM12.5 18.75C13.4946 18.75 14.4484 19.1451 15.1517 19.8483C15.8549 20.5516 16.25 21.5054 16.25 22.5C16.25 23.4946 15.8549 24.4484 15.1517 25.1516C14.4484 25.8549 13.4946 26.25 12.5 26.25C11.5054 26.25 10.5516 25.8549 9.84835 25.1516C9.14509 24.4484 8.75 23.4946 8.75 22.5C8.75 21.5054 9.14509 20.5516 9.84835 19.8483C10.5516 19.1451 11.5054 18.75 12.5 18.75ZM42.5 18.75C43.4946 18.75 44.4484 19.1451 45.1516 19.8483C45.8549 20.5516 46.25 21.5054 46.25 22.5C46.25 23.4946 45.8549 24.4484 45.1516 25.1516C44.4484 25.8549 43.4946 26.25 42.5 26.25C41.5054 26.25 40.5516 25.8549 39.8484 25.1516C39.1451 24.4484 38.75 23.4946 38.75 22.5C38.75 21.5054 39.1451 20.5516 39.8484 19.8483C40.5516 19.1451 41.5054 18.75 42.5 18.75Z" fill="white"/>
</svg>
