<svg width="56" height="65" viewBox="0 0 56 65" fill="none" xmlns="http://www.w3.org/2000/svg">
<path d="M12.41 30.9524H37.2299V37.1429H12.41V30.9524ZM18.615 55.7143H6.20499V6.19048H27.9224V21.6667H43.4349V31.2619L49.6399 25.0714V18.5714L31.0249 0H6.20499C4.55932 0 2.98106 0.652209 1.8174 1.81315C0.653737 2.97409 0 4.54866 0 6.19048V55.7143C0 57.3561 0.653737 58.9307 1.8174 60.0916C2.98106 61.2526 4.55932 61.9048 6.20499 61.9048H18.615V55.7143ZM12.41 49.5238H25.1302L27.9224 46.7381V43.3333H12.41V49.5238ZM50.2604 34.0476C50.5706 34.0476 51.1911 34.3571 51.5014 34.6667L55.5346 38.6905C56.1551 39.3095 56.1551 40.5476 55.5346 41.1667L52.4321 44.2619L45.9169 37.7619L49.0194 34.6667C49.3296 34.3571 49.6399 34.0476 50.2604 34.0476ZM50.2604 46.119L31.3352 65H24.8199V58.5L43.7452 39.619L50.2604 46.119Z" fill="white"/>
</svg>
