<svg width="51" height="60" viewBox="0 0 51 60" fill="none" xmlns="http://www.w3.org/2000/svg">
<path d="M0.0597687 8.57143H14.875V2.14286C14.875 1.57454 15.0989 1.02949 15.4974 0.627628C15.8959 0.225765 16.4364 0 17 0H34C34.5636 0 35.1041 0.225765 35.5026 0.627628C35.9011 1.02949 36.125 1.57454 36.125 2.14286V8.57143H50.9402L51 13.9286H46.6172L43.949 55.9821C43.8815 57.0696 43.4057 58.0904 42.6184 58.8368C41.8311 59.5831 40.7915 59.9991 39.7109 60H11.2891C10.2091 59.9999 9.16973 59.5851 8.38207 58.8401C7.59441 58.0951 7.11754 57.0756 7.04836 55.9888L4.38281 13.9286H0L0.0597687 8.57143ZM36.125 51.4286L37.3203 17.1429H32.9375L31.7422 51.4286H36.125ZM23.375 51.4286H27.625V17.1429H23.375V51.4286ZM20.1875 8.57143H30.8125V4.82143C30.8125 4.67935 30.7565 4.54309 30.6569 4.44262C30.5573 4.34215 30.4221 4.28571 30.2812 4.28571H20.7188C20.5779 4.28571 20.4427 4.34215 20.3431 4.44262C20.2435 4.54309 20.1875 4.67935 20.1875 4.82143V8.57143ZM14.875 51.4286H19.2578L18.0625 17.1429H13.6797L14.875 51.4286Z" fill="white"/>
</svg>
