<svg width="45" height="33" viewBox="0 0 45 33" fill="none" xmlns="http://www.w3.org/2000/svg">
<path d="M34.7727 29.9062C33.959 29.9062 33.1786 29.5803 32.6032 29.0001C32.0278 28.4199 31.7045 27.633 31.7045 26.8125C31.7045 25.992 32.0278 25.2051 32.6032 24.6249C33.1786 24.0447 33.959 23.7188 34.7727 23.7188C35.5865 23.7188 36.3669 24.0447 36.9423 24.6249C37.5177 25.2051 37.8409 25.992 37.8409 26.8125C37.8409 27.633 37.5177 28.4199 36.9423 29.0001C36.3669 29.5803 35.5865 29.9062 34.7727 29.9062ZM37.8409 11.3438L41.85 16.5H32.7273V11.3438M10.2273 29.9062C9.41354 29.9062 8.63314 29.5803 8.05774 29.0001C7.48234 28.4199 7.15909 27.633 7.15909 26.8125C7.15909 25.992 7.48234 25.2051 8.05774 24.6249C8.63314 24.0447 9.41354 23.7188 10.2273 23.7188C11.041 23.7188 11.8214 24.0447 12.3968 24.6249C12.9722 25.2051 13.2955 25.992 13.2955 26.8125C13.2955 27.633 12.9722 28.4199 12.3968 29.0001C11.8214 29.5803 11.041 29.9062 10.2273 29.9062ZM38.8636 8.25H32.7273V0H4.09091C1.82045 0 0 1.83562 0 4.125V26.8125H4.09091C4.09091 28.4535 4.73742 30.0273 5.88821 31.1877C7.039 32.3481 8.59981 33 10.2273 33C11.8547 33 13.4155 32.3481 14.5663 31.1877C15.7171 30.0273 16.3636 28.4535 16.3636 26.8125H28.6364C28.6364 28.4535 29.2829 30.0273 30.4337 31.1877C31.5845 32.3481 33.1453 33 34.7727 33C36.4002 33 37.961 32.3481 39.1118 31.1877C40.2626 30.0273 40.9091 28.4535 40.9091 26.8125H45V16.5L38.8636 8.25Z" fill="white"/>
</svg>
