<svg width="32" height="32" viewBox="0 0 32 32" fill="none" xmlns="http://www.w3.org/2000/svg">
<path d="M31.3201 24.7288L24.0018 17.4108C22.5581 15.9672 20.402 15.686 18.6646 16.5421L12.0025 9.88029V5.99941L4.0029 0L0.00312478 3.99961L6.00279 11.9988H9.88383L16.546 18.6607C15.696 20.398 15.971 22.554 17.4147 23.9977L24.733 31.3157C25.6454 32.2281 27.1204 32.2281 28.0266 31.3157L31.3201 28.0223C32.2263 27.1099 32.2263 25.635 31.3201 24.7288ZM20.7332 14.0611C22.5019 14.0611 24.1643 14.7486 25.4142 15.9984L26.6266 17.2108C27.6141 16.7796 28.5515 16.1797 29.364 15.3672C31.6826 13.0487 32.4701 9.78654 31.7326 6.82433C31.5951 6.26189 30.8889 6.06816 30.4764 6.48062L25.8267 11.1302L21.5832 10.424L20.877 6.18065L25.5267 1.5311C25.9392 1.11864 25.7392 0.41246 25.1705 0.268724C22.2081 -0.462455 18.9458 0.324968 16.6334 2.63724C14.8523 4.41832 14.0148 6.76809 14.0586 9.11161L19.1896 14.2424C19.6958 14.1236 20.2207 14.0611 20.7332 14.0611ZM14.2398 19.1856L10.6963 15.6422L1.17181 25.1725C-0.390603 26.7349 -0.390603 29.2659 1.17181 30.8282C2.73422 32.3906 5.26533 32.3906 6.82774 30.8282L14.5523 23.104C14.0773 21.8604 13.9336 20.5042 14.2398 19.1856ZM4.0029 29.4971C3.17795 29.4971 2.50299 28.8222 2.50299 27.9973C2.50299 27.1661 3.1717 26.4974 4.0029 26.4974C4.83411 26.4974 5.50282 27.1661 5.50282 27.9973C5.50282 28.8222 4.83411 29.4971 4.0029 29.4971Z" fill="white"/>
</svg>
