<svg width="34" height="34" viewBox="0 0 34 34" fill="none" xmlns="http://www.w3.org/2000/svg">
<path d="M32.87 31.2958L28 26.4558V7.83582L25.7 3.60582C25.5304 3.28331 25.2758 3.0133 24.9639 2.82493C24.6519 2.63656 24.2944 2.537 23.93 2.537C23.5656 2.537 23.2081 2.63656 22.8962 2.82493C22.5842 3.0133 22.3297 3.28331 22.16 3.60582L20 7.84582V18.4958L1.71002 0.295816C1.57015 0.154787 1.39145 0.0586059 1.1967 0.0195363C1.00195 -0.0195334 0.799979 0.000278115 0.616535 0.0764449C0.433092 0.152612 0.276486 0.281683 0.166685 0.447202C0.0568835 0.612722 -0.00113818 0.807191 1.6917e-05 1.00582V9.08582H2.17002V10.6858H1.6917e-05V17.0858H2.17002V18.6858H1.6917e-05V25.3358H2.17002V26.9358H1.6917e-05V32.0058C1.6917e-05 32.271 0.105374 32.5254 0.29291 32.7129C0.480446 32.9005 0.7348 33.0058 1.00002 33.0058H32.16C32.3586 33.007 32.5531 32.949 32.7186 32.8391C32.8841 32.7293 33.0132 32.5727 33.0894 32.3893C33.1656 32.2059 33.1854 32.0039 33.1463 31.8091C33.1072 31.6144 33.011 31.4357 32.87 31.2958ZM8.00002 25.0858V16.0258L17.07 25.0858H8.00002ZM26 27.1958H22V24.7658H26V27.1958ZM26 23.1958H22V8.33582L23.94 4.56582L26 8.34582V23.1958Z" fill="white"/>
</svg>
