<svg width="47" height="34" viewBox="0 0 47 34" fill="none" xmlns="http://www.w3.org/2000/svg">
<path d="M29.9091 0C34.4419 0 38.789 1.79107 41.9942 4.97919C45.1994 8.1673 47 12.4913 47 17C47 21.5087 45.1994 25.8327 41.9942 29.0208C38.789 32.2089 34.4419 34 29.9091 34C25.3763 34 21.0292 32.2089 17.824 29.0208C14.6188 25.8327 12.8182 21.5087 12.8182 17C12.8182 12.4913 14.6188 8.1673 17.824 4.97919C21.0292 1.79107 25.3763 0 29.9091 0ZM29.9091 4.25C26.5095 4.25 23.2491 5.5933 20.8453 7.98439C18.4414 10.3755 17.0909 13.6185 17.0909 17C17.0909 20.3815 18.4414 23.6245 20.8453 26.0156C23.2491 28.4067 26.5095 29.75 29.9091 29.75C33.3087 29.75 36.569 28.4067 38.9729 26.0156C41.3768 23.6245 42.7273 20.3815 42.7273 17C42.7273 13.6185 41.3768 10.3755 38.9729 7.98439C36.569 5.5933 33.3087 4.25 29.9091 4.25ZM27.7727 8.5H30.9773V16.5325L35.955 21.4837L33.6905 23.7362L27.7727 17.85V8.5ZM2.13636 29.75C1.56976 29.75 1.02637 29.5261 0.625726 29.1276C0.22508 28.7291 0 28.1886 0 27.625C0 27.0614 0.22508 26.5209 0.625726 26.1224C1.02637 25.7239 1.56976 25.5 2.13636 25.5H10.3186C10.9809 27.0087 11.8355 28.4325 12.8182 29.75H2.13636ZM4.27273 19.125C3.70613 19.125 3.16274 18.9011 2.76209 18.5026C2.36144 18.1041 2.13636 17.5636 2.13636 17C2.13636 16.4364 2.36144 15.8959 2.76209 15.4974C3.16274 15.0989 3.70613 14.875 4.27273 14.875H8.65227L8.54545 17L8.65227 19.125H4.27273ZM6.40909 8.5C5.84249 8.5 5.2991 8.27612 4.89845 7.8776C4.49781 7.47909 4.27273 6.93859 4.27273 6.375C4.27273 5.81141 4.49781 5.27091 4.89845 4.8724C5.2991 4.47388 5.84249 4.25 6.40909 4.25H12.8182C11.8355 5.5675 10.9809 6.99125 10.3186 8.5H6.40909Z" fill="white"/>
</svg>
